<svg id="logo" xmlns="http://www.w3.org/2000/svg" viewBox="0 0 192 48"><defs><style>.cls-1,.cls-2,.cls-3,.cls-4{fill:none;stroke-width:6px;}.cls-1{stroke:#333;}.cls-1,.cls-3,.cls-4{stroke-linecap:round;}.cls-1,.cls-3{stroke-linejoin:round;}.cls-2{stroke:#bf1c43;}.cls-2,.cls-4{stroke-miterlimit:10;}.cls-3,.cls-4{stroke:#ff2659;}</style></defs><title>Artboard 1</title><path class="cls-1" d="M2.75,45V3h10.5a10.5,10.5,0,0,1,0,21,10.5,10.5,0,0,1,0,21H2.75"/><line class="cls-2" x1="38.75" y1="24" x2="62.75" y2="24"/><polyline class="cls-3" points="34.75 3 41.75 45 59.75 45 66.75 3"/><path class="cls-1" d="M77.75,45V3h10.5a10.5,10.5,0,0,1,0,21h1.5l8,21"/><path class="cls-1" d="M109.75,45V3h10.5a10.5,10.5,0,0,1,0,21h1.5l8,21"/><line class="cls-4" x1="149.75" y1="45" x2="149.75" y2="27"/><path class="cls-4" d="M157.75,11a7.71,7.71,0,0,1-2.34,5.66,8,8,0,0,1-11.31,0A7.71,7.71,0,0,1,141.75,11a7.71,7.71,0,0,1,2.34-5.66,8,8,0,0,1,11.31,0A7.71,7.71,0,0,1,157.75,11Z"/><polyline class="cls-1" points="188.75 45 168.75 45 168.75 24 186.55 24 168.75 24 168.75 3 188.75 3"/></svg>