<svg viewBox="0 0 146 146" xmlns="http://www.w3.org/2000/svg" xmlns:xlink="http://www.w3.org/1999/xlink"><title>RV Logo</title><defs><path id="a" d="M.312 145.198h145.214V.012H.312z"/><path id="c" d="M30.44 31.058V.313H.294v30.745H30.44z"/><path d="M48.15.474c1.263.222 2.496.586 3.698 1.09 2.145.904 4.05 2.202 5.71 3.897 1.68 1.695 2.95 3.654 3.813 5.877.048.12.093.24.136.36V1.326h10.64c4.004 0 7.033.733 9.082 2.197 1.99 1.423 3.013 3.515 3.07 6.275.818-1.596 1.872-3.06 3.166-4.388 1.614-1.68 3.49-2.964 5.627-3.86 1.194-.498 2.42-.858 3.676-1.078h6.078c1.264.222 2.497.586 3.7 1.09 2.144.904 4.05 2.202 5.71 3.897 1.677 1.695 2.947 3.654 3.812 5.877.862 2.226 1.293 4.628 1.293 7.208 0 2.153-.3 4.18-.904 6.08-.6 1.9-1.495 3.632-2.682 5.202-1.678 2.23-3.74 3.964-6.186 5.2-2.446 1.233-5.038 1.853-7.776 1.853-2.328 0-4.555-.45-6.685-1.355-2.13-.9-4.017-2.2-5.663-3.894-.937-.96-1.75-1.992-2.436-3.09-.518 1.956-1.626 3.52-3.327 4.693-2.443 1.687-6.065 2.53-10.862 2.53h-9.332V25.374c-.59 1.61-1.397 3.092-2.427 4.452-1.68 2.23-3.74 3.964-6.186 5.2-2.448 1.233-5.04 1.853-7.778 1.853-2.326 0-4.554-.45-6.684-1.355-2.13-.9-4.018-2.2-5.663-3.894-1.71-1.757-3.006-3.74-3.884-5.95-.88-2.207-1.32-4.586-1.32-7.135 0-.48.017-.954.048-1.422l-.014.022c-1.102 1.63-2.69 2.905-4.762 3.82l10.496 14.797h-9.38l-9.19-13.513H13.6V35.76H5.624V1.328h8.856c2.833 0 5.03.186 6.59.56 1.558.37 2.938.99 4.142 1.86 1.283.92 2.275 2.057 2.98 3.41.572 1.1.913 2.253 1.02 3.454.862-1.915 2.047-3.65 3.557-5.2 1.612-1.68 3.49-2.964 5.626-3.86 1.192-.498 2.417-.858 3.675-1.078h6.08zm20.836 6.694h2.54c1.837 0 3.186.304 4.05.905.86.602 1.294 1.543 1.294 2.826 0 1.28-.455 2.274-1.366 2.978-.91.704-2.173 1.058-3.786 1.058h-2.732V7.168zm-55.385.43h1.354c2.39 0 4.115.368 5.176 1.103 1.062.738 1.592 1.93 1.592 3.575 0 1.568-.546 2.77-1.638 3.61-1.093.84-2.677 1.26-4.75 1.26H13.6V7.597zM93.34 26.06c-1.75-2.018-2.623-4.523-2.623-7.515 0-3.024.874-5.546 2.624-7.563 1.75-2.02 3.906-3.028 6.472-3.028 2.58 0 4.74 1.008 6.482 3.028 1.742 2.017 2.61 4.54 2.61 7.563 0 3.008-.868 5.517-2.61 7.528-1.743 2.01-3.902 3.017-6.482 3.017-2.566 0-4.722-1.01-6.47-3.03zm-54.694 0c-1.75-2.018-2.625-4.523-2.625-7.515 0-3.024.875-5.546 2.626-7.563 1.75-2.02 3.907-3.028 6.47-3.028 2.58 0 4.742 1.008 6.483 3.028 1.74 2.017 2.613 4.54 2.613 7.563 0 3.008-.873 5.517-2.614 7.528-1.742 2.01-3.903 3.017-6.484 3.017-2.563 0-4.72-1.01-6.47-3.03zm40.03-8.68c1.68-.605 2.98-1.43 3.905-2.47-.21 1.17-.316 2.383-.316 3.635 0 .157 0 .315.005.47-.996-.77-2.195-1.315-3.595-1.635zm-9.69 3.302h3.42c1.693 0 3 .378 3.918 1.13.918.75 1.376 1.816 1.376 3.192 0 1.41-.47 2.517-1.41 3.326-.944.807-2.238 1.21-3.884 1.21h-3.42v-8.858zM34.2 37.066L18.53 68.768h7.378l1.993-4.476H40.37l1.95 4.476h55.385v-6.47H85.728v-6.083h10.114v-6.3H85.728V44.36h10.326l6.674 9.818v14.59h7.314V53.88l11.85-15.86h-7.78l-7.08 9.734-6.425-9.734h-22v24.152h-9.072V38.02H62.2v24.152h-9.07V38.02h-7.336v22.06L34.666 37.065H34.2zm-.085 12.298L38.1 58.99h-8.077l4.092-9.626zM22.967 38.02l-7.315 16.817-7.25-16.817H.64l14.5 31.912h.51L30.155 38.02h-7.188z" id="e"/><path d="M29.192.615l-13.067 26.44h7.38l1.99-4.477h12.468l1.95 4.476H95.3v-6.47H83.32V14.5h10.115V8.2H83.32V2.647H93.65l6.673 9.818v14.59h7.316V12.167l8.63-11.552h-7.695l-3.945 5.425-3.58-5.425H76.198v19.843h-9.072V.615h-7.335v19.843h-9.07V.615h-7.335v17.75L34.804.615h-5.612zm-10.506 0l-5.44 12.507L7.85.615H.192l12.544 27.602h.51L25.79.615h-7.104zM31.708 7.65l3.986 9.627h-8.078l4.092-9.627z" id="g"/></defs><g fill="none" fill-rule="evenodd"><g transform="translate(0 .79)"><mask id="b" fill="#fff"><use xlink:href="#a"/></mask><path d="M145.526 72.607c0 40.086-32.518 72.59-72.618 72.59-40.104 0-72.596-32.504-72.596-72.59C.312 32.504 32.804.012 72.908.012c40.1 0 72.618 32.492 72.618 72.595" fill="#E4E5DE" mask="url(#b)"/></g><path d="M27.79 46.89h-1.355v9.547h1.733c2.074 0 3.658-.42 4.75-1.258 1.09-.84 1.638-2.044 1.638-3.61 0-1.647-.53-2.84-1.59-3.575-1.062-.735-2.788-1.104-5.177-1.104zm-9.334 28.165V40.622h8.857c2.834 0 5.03.187 6.59.558 1.56.372 2.94.994 4.143 1.864 1.283.918 2.276 2.055 2.98 3.408.705 1.354 1.058 2.782 1.058 4.286 0 2.17-.55 4.068-1.65 5.7-1.1 1.63-2.688 2.904-4.762 3.823l10.496 14.795h-9.38l-9.19-13.512h-1.163v13.512h-7.98z" fill="#E4212F"/><path d="M48.856 57.838c0 2.992.874 5.498 2.624 7.517 1.75 2.017 3.907 3.027 6.47 3.027 2.58 0 4.742-1.005 6.484-3.017 1.74-2.01 2.612-4.518 2.612-7.527 0-3.024-.872-5.545-2.612-7.563-1.742-2.018-3.904-3.028-6.483-3.028-2.563 0-4.72 1.01-6.47 3.028s-2.624 4.54-2.624 7.563m-8.454 0c0-2.548.44-4.935 1.32-7.16.877-2.223 2.172-4.214 3.88-5.972 1.616-1.677 3.49-2.964 5.63-3.858 2.136-.895 4.375-1.342 6.72-1.342 2.342 0 4.586.45 6.73 1.353 2.147.9 4.05 2.2 5.712 3.894 1.677 1.694 2.948 3.653 3.812 5.877.863 2.225 1.294 4.628 1.294 7.208 0 2.153-.3 4.18-.902 6.08-.603 1.9-1.497 3.632-2.684 5.2-1.68 2.232-3.74 3.965-6.186 5.2-2.446 1.235-5.038 1.852-7.777 1.852-2.326 0-4.554-.452-6.683-1.353-2.13-.903-4.018-2.2-5.665-3.894-1.708-1.758-3.003-3.74-3.88-5.95-.88-2.208-1.32-4.586-1.32-7.135" fill="#E4212F"/><path d="M81.82 68.832h3.42c1.646 0 2.94-.402 3.883-1.21.94-.808 1.412-1.916 1.412-3.325 0-1.377-.46-2.44-1.376-3.194-.92-.75-2.227-1.127-3.92-1.127h-3.42v8.856zm0-14.604h2.732c1.615 0 2.876-.352 3.787-1.056.91-.704 1.364-1.698 1.364-2.98s-.43-2.224-1.294-2.826c-.863-.6-2.212-.902-4.048-.902H81.82v7.764zm-7.48 20.826V40.622h10.638c4.005 0 7.034.733 9.083 2.196 2.05 1.465 3.076 3.638 3.076 6.52 0 1.755-.468 3.25-1.402 4.475-.934 1.228-2.342 2.182-4.224 2.862 2.088.475 3.726 1.452 4.913 2.932 1.187 1.482 1.78 3.29 1.78 5.426 0 3.31-1.222 5.806-3.667 7.493-2.445 1.686-6.066 2.528-10.863 2.528H74.34z" fill="#E4212F"/><path d="M103.55 57.838c0 2.992.876 5.498 2.625 7.517 1.75 2.017 3.906 3.027 6.47 3.027 2.58 0 4.74-1.005 6.484-3.017 1.74-2.01 2.61-4.518 2.61-7.527 0-3.024-.87-5.545-2.61-7.563-1.744-2.018-3.904-3.028-6.484-3.028-2.565 0-4.722 1.01-6.47 3.028-1.75 2.018-2.625 4.54-2.625 7.563m-8.453 0c0-2.548.44-4.935 1.318-7.16.88-2.223 2.174-4.214 3.883-5.972 1.615-1.677 3.49-2.964 5.627-3.858 2.137-.895 4.377-1.342 6.72-1.342 2.344 0 4.587.45 6.732 1.353 2.146.9 4.05 2.2 5.71 3.894 1.678 1.694 2.95 3.653 3.813 5.877.862 2.225 1.294 4.628 1.294 7.208 0 2.153-.302 4.18-.902 6.08-.603 1.9-1.497 3.632-2.684 5.2-1.68 2.232-3.74 3.965-6.186 5.2-2.446 1.235-5.038 1.852-7.776 1.852-2.328 0-4.555-.452-6.684-1.353-2.13-.903-4.018-2.2-5.664-3.894-1.71-1.758-3.004-3.74-3.883-5.95-.878-2.208-1.318-4.586-1.318-7.135M28.486 109.222h-.508l-14.503-31.91h7.76l7.25 16.815 7.316-16.814h7.188M42.857 98.282h8.078l-3.986-9.625-4.093 9.625zm-11.49 9.774l15.666-31.698h.467l15.33 31.698h-7.676l-1.95-4.474H40.735l-1.992 4.474h-7.378z" fill="#E4212F"/><path fill="#E4212F" d="M58.628 108.057V77.312h7.336v24.15h11.978v6.595"/><path fill="#E4212F" d="M75.034 108.057V77.312h7.335v24.15h11.98v6.595"/><path fill="#E4212F" d="M91.44 108.057V77.312h18.93v6.34H98.564v5.554h10.113v6.3H98.563v6.083h11.978v6.467"/><g transform="translate(104.286 77)"><mask id="d" fill="#fff"><use xlink:href="#c"/></mask><path fill="#E4212F" mask="url(#d)" d="M11.276 31.058v-14.59L.294.313h8.86l6.425 9.732L22.66.313h7.78l-11.85 15.86V31.06"/></g><g><g transform="translate(12.835 39.296)"><mask id="f" fill="#fff"><use xlink:href="#e"/></mask><path fill="#9A1921" mask="url(#f)" d="M-38.505 96.29L57.3.473l95.8 95.815"/></g><g transform="translate(15.242 81.01)"><mask id="h" fill="#fff"><use xlink:href="#g"/></mask><path fill="#6A0407" mask="url(#h)" d="M-7.65 63.165L54.894.615l62.537 62.55"/></g></g></g></svg>