<svg id="Layer_2" data-name="Layer 2" xmlns="http://www.w3.org/2000/svg" viewBox="0 0 100 39"><defs><style>.cls-1{fill:#009fda;}</style></defs><title>Artboard 2</title><path class="cls-1" d="M29.09,35.31a3.63,3.63,0,0,0,3.85-4V19.49h5.3V31.6C38.19,36.93,33.92,39,29.09,39S20,36.93,19.95,31.6V19.49h5.3V31.33A3.63,3.63,0,0,0,29.09,35.31Z"/><polygon points="6.21 38.63 11.52 38.63 11.52 23.2 17.45 23.2 17.45 19.49 0.28 19.49 0.28 23.2 6.21 23.2 6.21 38.63"/><path d="M18.95,10.18c-1.29.41-2.63.08-2.62-1.65,0-2.64,6.19-4.85,7.05-7.15.21-.57.23-1,0-1s0,.3-.48.73c-2.56,2.57-6.86,2.56-10.16,4-2.16,1-8.5,4-7,10.6.07.32.26,1.37.45,1.37s.22-.63.22-1.39c0-4,4.64-5.06,6.17-7.65.18-.31.5-.74.57-.54A1.05,1.05,0,0,1,13,8c-.48,2.13-2.7,3.49-2.07,5,.82,2,3.17.5,3.9-.77.19-.35.3-.57.43-.53s.09.43,0,.8c-.39,2.29-.91,3.57-2.59,4.87-.54.42-1.38.5-1.27.82,0,.08.39.07.68,0,4.46-.29,8.19-5.54,9.18-9,.1-.24.13-.47,0-.55s-.33.13-.53.31A5.64,5.64,0,0,1,18.95,10.18Z"/><path d="M64.21,30.7c0-2.08,1.27-4,3.37-4,2.44,0,3.39,1.67,3.39,4Zm9.41,1.75V31.2c0-3.68-2.09-6.28-5.86-6.28-4.21,0-6.18,3.26-6.18,7.16s1.7,6.95,6,6.95c3.18,0,5.51-1.51,5.91-4.53H70.82c-.29,1.93-1.27,2.7-3.23,2.7-2.57,0-3.43-2.29-3.43-4.74Z"/><rect x="76.68" y="19.49" width="2.52" height="19.13"/><path d="M87.1,38.63V27.08h3.07V25.32H87.1V23.17c0-1.54.74-1.8,2.17-1.8.42,0,.85.05,1.27.08V19.36a8.2,8.2,0,0,0-1.8-.27c-2.38,0-4.16,1.2-4.16,3.74v2.49H82v1.75h2.6V38.63Z"/><path d="M91.62,25.32v1.75H93.9v8.48c0,1.77,0,3.47,3.77,3.47a9.88,9.88,0,0,0,1.72-.16V36.93a6.18,6.18,0,0,1-1.33.16c-.9,0-1.64-.45-1.64-1.4V27.08h3.07V25.32H96.42V21.69l-2.52.79v2.84Z"/><path d="M43.54,38.63h6.57c8.18,0,9-6.93,9-9.57s-.86-9.57-9-9.57H43.54ZM46.2,21.77h3.92c4.42,0,6.26,3.34,6.26,7.29s-1.84,7.29-6.26,7.29H46.2Z"/></svg>